# AST/ASF file generated using VICON BodyLanguage
# -----------------------------------------------
:version 1.10
:name VICON
:units
  mass 1.0
  length 0.45
  angle deg
:documentation
   .ast/.asf automatically generated from VICON data using
   VICON BodyBuilder and BodyLanguage model FoxedUp or BRILLIANT.MOD
:root
   order TX TY TZ RX RY RZ
   axis XYZ
   position 0 0 0  
   orientation 0 0 0 
:bonedata
  begin
     id 1 
     name lhipjoint
     direction 0.578396 -0.714046 0.394458 
     length 2.21935 
     axis 0 0 0  XYZ
  end
  begin
     id 2 
     name lfemur
     direction 0.34202 -0.939693 0  
     length 6.39105  
     axis 0 0 20  XYZ
    dof rx ry rz
    limits (-160.0 20.0)
           (-70.0 70.0)
           (-60.0 70.0)
  end
  begin
     id 3 
     name ltibia
     direction 0.34202 -0.939693 0   
     length 6.99037   
     axis 0 0 20   XYZ
    dof rx
    limits (-10.0 170.0)
  end
  begin
     id 4 
     name lfoot
     direction 0.0582372 -0.160005 0.985397   
     length 2.06111   
     axis -90 7.62852e-016 20   XYZ
    dof rx rz
    limits (-45.0 90.0)
           (-70.0 20.0)
  end
  begin
     id 5 
     name ltoes
     direction 1.53556e-011 -4.21875e-011 1   
     length 1.04074   
     axis -90 7.62852e-016 20   XYZ
    dof rx
    limits (-90.0 20.0)
  end
  begin
     id 6 
     name rhipjoint
     direction -0.558179 -0.726269 0.40121   
     length 2.182  
     axis 0 0 0  XYZ 
  end
  begin
     id 7 
     name rfemur
     direction -0.34202 -0.939693 0   
     length 6.51172   
     axis 0 0 -20   XYZ
    dof rx ry rz
    limits (-160.0 20.0)
           (-70.0 70.0)
           (-70.0 60.0)
  end
  begin
     id 8 
     name rtibia
     direction -0.34202 -0.939693 0   
     length 7.02607   
     axis 0 0 -20   XYZ
    dof rx
    limits (-10.0 170.0)
 end
 begin
     id 9 
     name rfoot
     direction -0.0788856 -0.216737 0.973038   
     length 1.96734  
     axis -90 -7.62852e-016 -20   XYZ
    dof rx rz
    limits (-45.0 90.0)
           (-20.0 70.0)
  end
  begin
     id 10 
     name rtoes
     direction -1.53567e-011 -4.21783e-011 1   
     length 0.990825   
     axis -90 -7.62852e-016 -20   XYZ
    dof rx
    limits (-90.0 20.0)
  end
  begin
     id 11 
     name lowerback
     direction 0.00668177 0.999323 -0.0361741   
     length 1.7655   
     axis 0 0 0   XYZ
    dof rx ry rz
    limits (-20.0 45.0)
           (-30.0 30.0)
           (-30.0 30.0)
  end
  begin
     id 12 
     name upperback
     direction -0.00222086 0.99851 0.0545167   
     length 1.74912   
     axis 0 0 0   XYZ
    dof rx ry rz
    limits (-20.0 45.0)
           (-30.0 30.0)
           (-30.0 30.0)
  end
  begin
     id 13 
     name thorax
     direction -0.00733971 0.997496 0.0703443   
     length 1.75715   
     axis 0 0 0   XYZ
    dof rx ry rz
    limits (-20.0 45.0)
           (-30.0 30.0)
           (-30.0 30.0)
  end
  begin
     id 14 
     name lowerneck
     direction 0.0279797 0.994795 0.0979765   
     length 1.46939   
     axis 0 0 0   XYZ
    dof rx ry rz
    limits (-20.0 45.0)
           (-30.0 30.0)
           (-30.0 30.0)
  end
  begin
     id 15 
     name upperneck
     direction 0.00339187 0.976776 -0.214238   
     length 1.48018   
     axis 0 0 0   XYZ
    dof rx ry rz
    limits (-20.0 45.0)
           (-30.0 30.0)
           (-30.0 30.0)
  end
  begin
     id 16
     name head
     direction -0.00263506 0.996603 -0.0823096  
     length 1.4976  
     axis 0 0 0   XYZ
    dof rx ry rz
    limits (-20.0 45.0)
           (-30.0 30.0)
           (-30.0 30.0)
  end
  begin
     id 17 
     name lclavicle
     direction 0.894044 0.44508 -0.0508781  
     length 3.03024  
     axis 0 0 0   XYZ
    dof ry rz
    limits (-20.0 10.0)
           (0.0 20.0)
  end
  begin
     id 18 
     name lhumerus
     direction 1 -4.48961e-011 -2.39475e-018   
     length 4.4661   
     axis 180 -30 -90   XYZ
    dof rx ry rz
    limits (-60.0 90.0)
           (-90.0 90.0)
           (-90.0 90.0)
  end
  begin
     id 19
     name lradius
     direction 1 -4.48961e-011 9.29328e-028   
     length 3.41414   
     axis 180 -30 -90   XYZ
    dof rx
    limits (-10.0 170.0)
  end
  begin
     id 20
     name lwrist
     direction 1 -4.48985e-011 1.53461e-026   
     length 1.70707   
     axis -1.09697e-014 90 90   XYZ
    dof ry
    limits (-180.0 0.0)
 end
  begin
     id 21 
     name lhand
     direction 1 -4.48966e-011 3.06923e-026   
     length 0.328298   
     axis -1.95843e-014 90 90   XYZ
    dof rx rz
    limits (-90.0 90.0)
           (-45.0 45.0)
  end
  begin
     id 22 
     name lfingers
     direction 1 -4.48893e-011 6.13845e-026   
     length 0.264682   
     axis -3.91686e-014 90 90   XYZ
    dof rx
    limits (0.0 90.0)
  end
  begin
     id 23
     name lthumb
     direction 0.707107 -6.34876e-011 0.707107   
     length 0.380032   
     axis -90 45 2.85299e-015   XYZ
    dof rx rz
    limits (-45.0 45.0)
           (-45.0 45.0)
  end
  begin
     id 24 
     name rclavicle
     direction -0.936955 0.347862 -0.0332887   
     length 3.26927  
     axis 0 0 0   XYZ 
    dof ry rz
    limits (-10.0 20.0)
           (-20.0 0.0)
  end
  begin
     id 25 
     name rhumerus
     direction -1 -4.4896e-011 1.78637e-018  
     length 4.40431   
     axis 180 30 90   XYZ
    dof rx ry rz
    limits (-90.0 60.0)
           (-90.0 90.0)
           (-90.0 90.0)
  end
  begin
     id 26 
     name rradius
     direction -1 -4.48955e-011 9.34036e-027   
     length 3.04688   
     axis 180 30 90   XYZ
    dof rx
    limits (-10.0 170.0)
  end
  begin
     id 27 
     name rwrist
     direction -1 -4.49011e-011 1.53461e-026   
     length 1.52344   
     axis -1.09697e-014 -90 -90   XYZ
    dof ry
    limits (-180.0 0.0)
  end
  begin
     id 28
     name rhand
     direction -1 -4.48834e-011 3.06923e-026   
     length 0.500489   
     axis -1.95843e-014 -90 -90   XYZ
    dof rx rz
    limits (-90.0 90.0)
           (-45.0 45.0)
  end
  begin
     id 29
     name rfingers
     direction -1 -4.48967e-011 6.13845e-026   
     length 0.403507   
     axis -3.91686e-014 -90 -90   XYZ
    dof rx
    limits (0.0 90.0)
  end
  begin
     id 30
     name rthumb
     direction -0.707107 -6.34826e-011 0.707107   
     length 0.579358   
     axis -90 -45 -2.85299e-015   XYZ
    dof rx rz
    limits (-45.0 45.0)
           (-45.0 45.0)
  end
:hierarchy
  begin
    root lhipjoint rhipjoint lowerback
    lhipjoint lfemur
    lfemur ltibia
    ltibia lfoot
    lfoot ltoes
    rhipjoint rfemur
    rfemur rtibia
    rtibia rfoot
    rfoot rtoes
    lowerback upperback
    upperback thorax
    thorax lowerneck lclavicle rclavicle
    lowerneck upperneck
    upperneck head
    lclavicle lhumerus
    lhumerus lradius
    lradius lwrist
    lwrist lhand lthumb
    lhand lfingers
    rclavicle rhumerus
    rhumerus rradius
    rradius rwrist
    rwrist rhand rthumb
    rhand rfingers
  end

#!OML:ASF H:\IndianDance\Patient Classification 1\Patient 1\Session 1\dancer.ASF
:FULLY-SPECIFIED
:DEGREES
541
root -0.559856 13.0563 9.36891 -171.543 4.2885 -182.143
lowerback 26.6316 2.25519 -0.30559
upperback 1.83099 3.27156 -1.04395
thorax -12.7608 1.69564 -2.26878
lowerneck -22.5399 -0.381989 -3.90263
upperneck 1.80008 -0.767846 7.20974
head 4.11742 -0.23845 2.8106
rclavicle 2.22639e-014 -3.57812e-015
rhumerus 74.9272 -14.6854 -35.2382
rradius 62.5134
rwrist -41.1311
rhand -10.4676 23.6217
rfingers 7.12502
rthumb 15.5333 -5.77438
lclavicle 2.22639e-014 -3.57812e-015
lhumerus 76.5945 17.41 15.6026
lradius 59.0129
lwrist 24.7754
lhand -50.684 4.88022
lfingers 7.12502
lthumb -23.2455 33.4972
rfemur -78.1862 -2.01205 27.8949
rtibia 64.4387
rfoot -16.7932 -7.54348
rtoes -1.03578
lfemur -50.9164 7.36578 -35.8509
ltibia 75.5632
lfoot -32.0699 11.4194
ltoes 19.5451
542
root -0.567474 13.0478 9.37819 -171.17 4.32745 -182.274
lowerback 26.9999 2.27013 -0.652715
upperback 2.21554 3.25672 -1.03052
thorax -12.5293 1.74133 -2.05754
lowerneck -22.6251 -0.418797 -3.98523
upperneck 1.8449 -0.814248 7.38111
head 4.14911 -0.250869 2.87467
rclavicle -1.11319e-014 -9.54166e-015
rhumerus 74.0847 -13.644 -34.3158
rradius 62.036
rwrist -39.7972
rhand -13.4408 23.9956
rfingers 7.12502
rthumb 12.6682 -5.6002
lclavicle -1.11319e-014 -9.54166e-015
lhumerus 76.2384 16.3699 14.8079
lradius 58.7128
lwrist 24.8213
lhand -50.9146 5.65648
lfingers 7.12502
lthumb -23.4667 34.2453
rfemur -78.2912 -2.08783 29.2258
rtibia 60.6693
rfoot -16.9763 -7.2597
rtoes -1.94468
lfemur -51.4446 7.40935 -36.1271
ltibia 75.6711
lfoot -32.0567 11.3038
ltoes 19.5037
543
root -0.574783 13.0378 9.38293 -170.739 4.35286 -182.39
lowerback 27.3085 2.29004 -0.992914
upperback 2.5761 3.25131 -0.987914
thorax -12.2939 1.78909 -1.8177
lowerneck -22.7009 -0.466183 -4.13235
upperneck 1.88328 -0.855585 7.55306
head 4.17737 -0.261045 2.94981
rclavicle 1.07344e-014 -1.98785e-015
rhumerus 73.2872 -12.5273 -33.3702
rradius 61.5537
rwrist -38.4749
rhand -16.4902 24.3899
rfingers 7.12502
rthumb 9.72723 -5.36543
lclavicle 1.07344e-014 -1.98785e-015
lhumerus 75.9161 15.2914 14.1291
lradius 58.4015
lwrist 24.8355
lhand -51.1287 6.44627
lfingers 7.12502
lthumb -23.672 35.0087
rfemur -78.3265 -2.23631 30.7092
rtibia 56.9207
rfoot -17.1433 -6.86184
rtoes -3.1854
lfemur -52.0323 7.43067 -36.3987
ltibia 75.8081
lfoot -32.0588 11.1858
ltoes 19.4621
544
root -0.582239 13.0259 9.38276 -170.268 4.36437 -182.489
lowerback 27.5616 2.28755 -1.32479
upperback 2.92421 3.21884 -0.943814
thorax -12.0426 1.82216 -1.56814
lowerneck -22.7813 -0.478983 -4.23736
upperneck 1.91424 -0.862769 7.70876
head 4.2017 -0.25581 3.01636
rclavicle 3.18055e-015 8.34896e-015
rhumerus 72.5903 -11.3177 -32.5236
rradius 61.0528
rwrist -37.1117
rhand -19.5597 24.8126
rfingers 7.12502
rthumb 6.76483 -5.05938
lclavicle 3.18055e-015 8.34896e-015
lhumerus 75.5697 14.2258 13.4717
lradius 58.0885
lwrist 24.8398
lhand -51.3091 7.14055
lfingers 7.12502
lthumb -23.845 35.6805
rfemur -78.2977 -2.4681 32.3657
rtibia 53.2626
rfoot -17.2989 -6.35184
rtoes -4.76139
lfemur -52.6599 7.4384 -36.6635
ltibia 75.978
lfoot -32.0814 11.0543
ltoes 19.4254
545
root -0.590198 13.0116 9.37758 -169.773 4.35533 -182.569
lowerback 27.7732 2.27613 -1.63121
upperback 3.26009 3.18317 -0.889018
thorax -11.7822 1.85064 -1.31787
lowerneck -22.8574 -0.4861 -4.33584
upperneck 1.94626 -0.862684 7.85194
head 4.22514 -0.24753 3.07864
rclavicle -3.97569e-014 1.47101e-014
rhumerus 71.9484 -10.0505 -31.7286
rradius 60.5394
rwrist -35.6987
rhand -22.5979 25.2507
rfingers 7.12502
rthumb 3.83143 -4.69458
lclavicle -3.97569e-014 1.47101e-014
lhumerus 75.2243 13.1679 12.8747
lradius 57.7747
lwrist 24.8616
lhand -51.454 7.63373
lfingers 7.12502
lthumb -23.984 36.1555
rfemur -78.2217 -2.799 34.2094
rtibia 49.7757
rfoot -17.4453 -5.73379
rtoes -6.58897
lfemur -53.3098 7.43391 -36.9181
ltibia 76.1834
lfoot -32.1276 10.8925
ltoes 19.4217
546
root -0.598771 12.9952 9.36776 -169.271 4.323 -182.639
lowerback 27.9595 2.24329 -1.90745
upperback 3.58765 3.12813 -0.846326
thorax -11.5151 1.86693 -1.09041
lowerneck -22.9435 -0.477636 -4.39479
upperneck 1.98756 -0.855109 8.00371
head 4.25259 -0.234648 3.13822
rclavicle -4.59193e-014 1.51076e-014
rhumerus 71.379 -8.73247 -31.0628
rradius 59.9929
rwrist -34.2143
rhand -25.5662 25.7144
rfingers 7.12502
rthumb 0.964712 -4.2632
lclavicle -4.59193e-014 1.51076e-014
lhumerus 74.8722 12.1275 12.2824
lradius 57.4659
lwrist 24.8847
lhand -51.583 7.97601
lfingers 7.12502
lthumb -24.1078 36.4814
rfemur -78.119 -3.23341 36.2244
rtibia 46.5505
rfoot -17.5883 -5.01483
rtoes -8.45704
lfemur -53.9593 7.4198 -37.1672
ltibia 76.4169
lfoot -32.1905 10.7095
ltoes 19.4274
547
root -0.607874 12.9769 9.35379 -168.775 4.25862 -182.706
lowerback 28.1337 2.18458 -2.15236
upperback 3.91078 3.04891 -0.820908
thorax -11.2432 1.86936 -0.891116
lowerneck -23.0395 -0.455929 -4.41696
upperneck 2.03454 -0.843921 8.17391
head 4.28329 -0.218737 3.19828
rclavicle -8.54774e-015 8.74653e-015
rhumerus 70.875 -7.38447 -30.5295
rradius 59.4163
rwrist -32.6583
rhand -28.4411 26.1774
rfingers 7.12502
rthumb -1.81194 -3.7947
lclavicle -8.54774e-015 8.74653e-015
lhumerus 74.5266 11.0973 11.682
lradius 57.153
lwrist 24.8699
lhand -51.7316 8.29505
lfingers 7.12502
lthumb -24.2502 36.7815
rfemur -78.0155 -3.76632 38.3654
rtibia 43.6783
rfoot -17.7267 -4.24135
rtoes -10.1555
lfemur -54.5921 7.3925 -37.4141
ltibia 76.673
lfoot -32.2698 10.4849
ltoes 19.4969
548
root -0.617257 12.9576 9.33669 -168.295 4.15747 -182.774
lowerback 28.3095 2.09482 -2.36301
upperback 4.22918 2.93925 -0.820336
thorax -10.9733 1.85522 -0.728642
lowerneck -23.1615 -0.418479 -4.38671
upperneck 2.10358 -0.829761 8.35305
head 4.32462 -0.199788 3.25346
rclavicle 1.47101e-014 -6.36111e-015
rhumerus 70.4338 -6.01843 -30.1332
rradius 58.8045
rwrist -31.0484
rhand -31.2253 26.6121
rfingers 7.12502
rthumb -4.50074 -3.32009
lclavicle 1.47101e-014 -6.36111e-015
lhumerus 74.1912 10.0743 11.0506
lradius 56.8421
lwrist 24.8354
lhand -51.8934 8.66641
lfingers 7.12502
lthumb -24.4053 37.1321
rfemur -77.9346 -4.36606 40.5305
rtibia 41.243
rfoot -17.8768 -3.44069
rtoes -11.344
lfemur -55.1955 7.34875 -37.6598
ltibia 76.9402
lfoot -32.3534 10.2302
ltoes 19.6102
549
root -0.626693 12.9379 9.31724 -167.835 4.01414 -182.847
lowerback 28.5044 1.97591 -2.53261
upperback 4.53904 2.80365 -0.839168
thorax -10.7187 1.82668 -0.603323
lowerneck -23.2979 -0.379115 -4.34242
upperneck 2.18658 -0.821005 8.55314
head 4.37317 -0.181609 3.31289
rclavicle 6.55989e-015 -1.07344e-014
rhumerus 70.0376 -4.63968 -29.8367
rradius 58.1602
rwrist -29.4183
rhand -33.9452 27.0321
rfingers 7.12502
rthumb -7.12664 -2.82786
lclavicle 6.55989e-015 -1.07344e-014
lhumerus 73.8787 9.04461 10.409
lradius 56.5312
lwrist 24.8106
lhand -52.0529 9.08793
lfingers 7.12502
lthumb -24.5583 37.5329
rfemur -77.8878 -4.99183 42.5955
rtibia 39.3027
rfoot -18.0286 -2.70469
rtoes -11.9473
lfemur -55.7623 7.29041 -37.9043
ltibia 77.211
lfoot -32.4341 9.94355
ltoes 19.7734
550
root -0.636074 12.9182 9.29618 -167.395 3.82953 -182.922
lowerback 28.7203 1.82438 -2.65623
upperback 4.84077 2.63895 -0.881036
thorax -10.4796 1.7826 -0.520921
lowerneck -23.4639 -0.334723 -4.2738
upperneck 2.29228 -0.816119 8.76346
head 4.43365 -0.16354 3.37185
rclavicle 4.27387e-014 -3.37934e-014
rhumerus 69.6921 -3.26222 -29.6687
rradius 57.5058
rwrist -27.9043
rhand -36.44 27.3726
rfingers 7.12502
rthumb -9.53436 -2.39174
lclavicle 4.27387e-014 -3.37934e-014
lhumerus 73.5746 8.01801 9.73358
lradius 56.2525
lwrist 24.8717
lhand -52.1738 9.50457
lfingers 7.12502
lthumb -24.6741 37.9338
rfemur -77.8724 -5.58359 44.4084
rtibia 37.8806
rfoot -18.1716 -2.12523
rtoes -11.9798
lfemur -56.2944 7.21615 -38.145
ltibia 77.4795
lfoot -32.5047 9.63921
ltoes 19.9708
551
root -0.645187 12.8989 9.27384 -166.97 3.61165 -182.993
lowerback 28.9582 1.65863 -2.73233
upperback 5.12507 2.46944 -0.919769
thorax -10.269 1.73389 -0.461841
lowerneck -23.6281 -0.313532 -4.2619
upperneck 2.41089 -0.82742 8.99399
head 4.49955 -0.151353 3.4452
rclavicle -1.63003e-014 1.15295e-014
rhumerus 69.3679 -1.88262 -29.5645
rradius 56.8892
rwrist -26.6044
rhand -38.7188 27.5042
rfingers 7.12502
rthumb -11.7325 -2.14721
lclavicle -1.63003e-014 1.15295e-014
lhumerus 73.2939 6.96222 9.09078
lradius 56.003
lwrist 25.0465
lhand -52.2453 9.904
lfingers 7.12502
lthumb -24.7426 38.3238
rfemur -77.8591 -6.07749 45.8229
rtibia 36.952
rfoot -18.3076 -1.77269
rtoes -11.6001
lfemur -56.796 7.13067 -38.3747
ltibia 77.7424
lfoot -32.5681 9.31794
ltoes 20.2152
552
root -0.653893 12.8804 9.25026 -166.554 3.37409 -183.057
lowerback 29.2129 1.47408 -2.76865
upperback 5.3926 2.28547 -0.968918
thorax -10.0834 1.67651 -0.433033
lowerneck -23.8113 -0.294007 -4.25062
upperneck 2.54983 -0.842088 9.224
head 4.57501 -0.139511 3.51874
rclavicle -5.96354e-016 -9.14409e-015
rhumerus 69.0874 -0.498286 -29.594
rradius 56.2956
rwrist -25.5786
rhand -40.6507 27.5079
rfingers 7.12502
rthumb -13.5949 -2.02822
lclavicle -5.96354e-016 -9.14409e-015
lhumerus 73.0212 5.89959 8.43174
lradius 55.801
lwrist 25.3903
lhand -52.2386 10.2471
lfingers 7.12502
lthumb -24.7362 38.6678
rfemur -77.8068 -6.42228 46.7308
rtibia 36.4482
rfoot -18.4404 -1.64945
rtoes -10.9277
lfemur -57.2735 7.04486 -38.5927
ltibia 77.9972
lfoot -32.6239 8.99995
ltoes 20.4604
553
root -0.662407 12.8626 9.22514 -166.138 3.12986 -183.107
lowerback 29.4786 1.29482 -2.77041
upperback 5.63532 2.11632 -1.00218
thorax -9.93117 1.62358 -0.412391
lowerneck -23.9919 -0.304035 -4.30055
upperneck 2.70478 -0.875826 9.45106
head 4.65671 -0.135799 3.59972
rclavicle 1.74931e-014 -1.07344e-014
rhumerus 68.8125 0.879864 -29.6881
rradius 55.7421
rwrist -24.8793
rhand -42.169 27.4694
rfingers 7.12502
rthumb -15.058 -1.96299
lclavicle 1.74931e-014 -1.07344e-014
lhumerus 72.7698 4.81118 7.80524
lradius 55.6502
lwrist 25.8822
lhand -52.1751 10.5299
lfingers 7.12502
lthumb -24.6754 38.9589
rfemur -77.675 -6.59063 47.0921
rtibia 36.2672
rfoot -18.561 -1.71525
rtoes -10.2078
lfemur -57.7367 6.96187 -38.7957
ltibia 78.2467
lfoot -32.6787 8.69553
ltoes 20.7019
554
root -0.670833 12.8455 9.19797 -165.711 2.89529 -183.14
lowerback 29.7307 1.1317 -2.76109
upperback 5.85627 1.96868 -1.02096
thorax -9.7974 1.57861 -0.389314
lowerneck -24.1533 -0.328781 -4.36668
upperneck 2.85325 -0.921415 9.66376
head 4.73443 -0.138588 3.67747
rclavicle -1.59028e-015 -8.94531e-015
rhumerus 68.5498 2.2502 -29.8712
rradius 55.2291
rwrist -24.4557
rhand -43.2962 27.3022
rfingers 7.12502
rthumb -16.1435 -2.04548
lclavicle -1.59028e-015 -8.94531e-015
lhumerus 72.5295 3.70873 7.18318
lradius 55.5629
lwrist 26.4804
lhand -52.0786 10.7866
lfingers 7.12502
lthumb -24.5828 39.2282
rfemur -77.4285 -6.56804 46.9175
rtibia 36.2941
rfoot -18.6728 -1.86498
rtoes -9.40914
lfemur -58.1975 6.88852 -38.9818
ltibia 78.4956
lfoot -32.743 8.40102
ltoes 20.9506
